<mxfile host="Electron" agent="Mozilla/5.0 (Windows NT 10.0; Win64; x64) AppleWebKit/537.36 (KHTML, like Gecko) draw.io/24.7.5 Chrome/126.0.6478.183 Electron/31.3.0 Safari/537.36" version="24.7.5">
  <diagram name="Page-1" id="M9D1vTkV7xwXEjMcWfsh">
    <mxGraphModel dx="750" dy="444" grid="1" gridSize="10" guides="1" tooltips="1" connect="1" arrows="1" fold="1" page="1" pageScale="1" pageWidth="1169" pageHeight="827" math="0" shadow="0">
      <root>
        <mxCell id="0" />
        <mxCell id="1" parent="0" />
        <mxCell id="8c2rz28ZeFPdhyrxypDs-38" value="" style="rounded=1;whiteSpace=wrap;html=1;dashed=1;strokeWidth=3;arcSize=8;" vertex="1" parent="1">
          <mxGeometry x="280" y="160" width="1100" height="340" as="geometry" />
        </mxCell>
        <mxCell id="8c2rz28ZeFPdhyrxypDs-3" value="H264 Intra&lt;div style=&quot;font-size: 20px;&quot;&gt;Encoder IP&lt;/div&gt;" style="rounded=0;whiteSpace=wrap;html=1;fontStyle=1;fillColor=#d5e8d4;strokeColor=#82b366;strokeWidth=2;fontSize=20;" vertex="1" parent="1">
          <mxGeometry x="640" y="400" width="160" height="60" as="geometry" />
        </mxCell>
        <mxCell id="8c2rz28ZeFPdhyrxypDs-4" value="AXI Uartlite" style="rounded=0;whiteSpace=wrap;html=1;fontStyle=1;fillColor=#e1d5e7;strokeColor=#9673a6;strokeWidth=2;fontSize=20;" vertex="1" parent="1">
          <mxGeometry x="1040" y="400" width="120" height="60" as="geometry" />
        </mxCell>
        <mxCell id="8c2rz28ZeFPdhyrxypDs-5" value="DDR3&lt;div style=&quot;font-size: 20px;&quot;&gt;Controller&lt;/div&gt;" style="rounded=0;whiteSpace=wrap;html=1;fontStyle=1;strokeWidth=2;fontSize=20;fillColor=#f5f5f5;fontColor=#333333;strokeColor=#666666;" vertex="1" parent="1">
          <mxGeometry x="860" y="205" width="100" height="50" as="geometry" />
        </mxCell>
        <mxCell id="8c2rz28ZeFPdhyrxypDs-7" value="" style="endArrow=classic;startArrow=classic;html=1;rounded=0;exitX=0.5;exitY=0;exitDx=0;exitDy=0;entryX=0.63;entryY=0.965;entryDx=0;entryDy=0;fontStyle=1;entryPerimeter=0;strokeWidth=2;fontSize=20;" edge="1" parent="1" source="8c2rz28ZeFPdhyrxypDs-4">
          <mxGeometry width="50" height="50" relative="1" as="geometry">
            <mxPoint x="830" y="420" as="sourcePoint" />
            <mxPoint x="1099.8999999999999" y="348.6" as="targetPoint" />
          </mxGeometry>
        </mxCell>
        <mxCell id="8c2rz28ZeFPdhyrxypDs-8" value="" style="endArrow=classic;startArrow=classic;html=1;rounded=0;exitX=0.37;exitY=-0.008;exitDx=0;exitDy=0;entryX=0.5;entryY=1;entryDx=0;entryDy=0;fontStyle=1;exitPerimeter=0;strokeWidth=2;fontSize=20;" edge="1" parent="1" target="8c2rz28ZeFPdhyrxypDs-5">
          <mxGeometry width="50" height="50" relative="1" as="geometry">
            <mxPoint x="910.1000000000001" y="309.67999999999995" as="sourcePoint" />
            <mxPoint x="900" y="220" as="targetPoint" />
          </mxGeometry>
        </mxCell>
        <mxCell id="8c2rz28ZeFPdhyrxypDs-9" value="" style="endArrow=classic;startArrow=classic;html=1;rounded=0;exitX=0.109;exitY=-0.001;exitDx=0;exitDy=0;entryX=0.5;entryY=1;entryDx=0;entryDy=0;fontStyle=1;strokeWidth=2;fontSize=20;exitPerimeter=0;" edge="1" parent="1" target="8c2rz28ZeFPdhyrxypDs-2">
          <mxGeometry width="50" height="50" relative="1" as="geometry">
            <mxPoint x="719.5699999999999" y="309.96000000000004" as="sourcePoint" />
            <mxPoint x="739.76" y="280" as="targetPoint" />
          </mxGeometry>
        </mxCell>
        <mxCell id="8c2rz28ZeFPdhyrxypDs-11" value="" style="endArrow=classic;startArrow=classic;html=1;rounded=0;exitX=0.5;exitY=0;exitDx=0;exitDy=0;entryX=0.11;entryY=0.972;entryDx=0;entryDy=0;fontStyle=1;strokeWidth=2;fontSize=20;entryPerimeter=0;" edge="1" parent="1" source="8c2rz28ZeFPdhyrxypDs-3">
          <mxGeometry width="50" height="50" relative="1" as="geometry">
            <mxPoint x="720" y="330" as="sourcePoint" />
            <mxPoint x="720.3" y="348.88" as="targetPoint" />
          </mxGeometry>
        </mxCell>
        <mxCell id="8c2rz28ZeFPdhyrxypDs-12" value="DDR3 SDRAM" style="rounded=0;whiteSpace=wrap;html=1;fontStyle=1;strokeWidth=2;fontSize=20;fillColor=#f5f5f5;fontColor=#333333;strokeColor=#666666;" vertex="1" parent="1">
          <mxGeometry x="855" y="60" width="110" height="60" as="geometry" />
        </mxCell>
        <mxCell id="8c2rz28ZeFPdhyrxypDs-17" value="" style="endArrow=classic;startArrow=classic;html=1;rounded=0;entryX=0.5;entryY=1;entryDx=0;entryDy=0;fontStyle=1;strokeWidth=2;fontSize=20;exitX=0.63;exitY=-0.014;exitDx=0;exitDy=0;exitPerimeter=0;" edge="1" parent="1" target="8c2rz28ZeFPdhyrxypDs-19">
          <mxGeometry width="50" height="50" relative="1" as="geometry">
            <mxPoint x="1099.8999999999999" y="309.44000000000005" as="sourcePoint" />
            <mxPoint x="1099.76" y="280" as="targetPoint" />
          </mxGeometry>
        </mxCell>
        <mxCell id="8c2rz28ZeFPdhyrxypDs-19" value="AXI 1G/2.5G&amp;nbsp;&lt;div style=&quot;font-size: 20px;&quot;&gt;Ethernet Subsystem&lt;/div&gt;" style="rounded=0;whiteSpace=wrap;html=1;fontStyle=1;strokeWidth=2;fontSize=20;fillColor=#f5f5f5;fontColor=#333333;strokeColor=#666666;" vertex="1" parent="1">
          <mxGeometry x="1000" y="205" width="200" height="50" as="geometry" />
        </mxCell>
        <mxCell id="8c2rz28ZeFPdhyrxypDs-20" value="Marvell&lt;div style=&quot;font-size: 20px;&quot;&gt;PHY&lt;/div&gt;" style="rounded=0;whiteSpace=wrap;html=1;fontStyle=1;strokeWidth=2;fontSize=20;fillColor=#f5f5f5;fontColor=#333333;strokeColor=#666666;" vertex="1" parent="1">
          <mxGeometry x="1050" y="60" width="100" height="60" as="geometry" />
        </mxCell>
        <mxCell id="8c2rz28ZeFPdhyrxypDs-22" value="AXI DMA" style="rounded=0;whiteSpace=wrap;html=1;fontStyle=1;strokeWidth=2;fontSize=20;fillColor=#dae8fc;strokeColor=#6c8ebf;" vertex="1" parent="1">
          <mxGeometry x="850" y="400" width="120" height="60" as="geometry" />
        </mxCell>
        <mxCell id="8c2rz28ZeFPdhyrxypDs-24" value="" style="endArrow=classic;startArrow=classic;html=1;rounded=0;exitX=0.5;exitY=0;exitDx=0;exitDy=0;entryX=0.369;entryY=0.997;entryDx=0;entryDy=0;fontStyle=1;entryPerimeter=0;strokeWidth=2;fontSize=20;" edge="1" parent="1" source="8c2rz28ZeFPdhyrxypDs-22">
          <mxGeometry width="50" height="50" relative="1" as="geometry">
            <mxPoint x="909.77" y="380" as="sourcePoint" />
            <mxPoint x="909.3699999999999" y="349.88" as="targetPoint" />
          </mxGeometry>
        </mxCell>
        <mxCell id="8c2rz28ZeFPdhyrxypDs-25" value="" style="endArrow=classic;startArrow=classic;html=1;rounded=0;exitX=0;exitY=0.5;exitDx=0;exitDy=0;entryX=1;entryY=0.5;entryDx=0;entryDy=0;fontStyle=1;strokeWidth=2;fontSize=20;" edge="1" parent="1" source="8c2rz28ZeFPdhyrxypDs-22" target="8c2rz28ZeFPdhyrxypDs-3">
          <mxGeometry width="50" height="50" relative="1" as="geometry">
            <mxPoint x="920" y="390" as="sourcePoint" />
            <mxPoint x="919.77" y="350" as="targetPoint" />
          </mxGeometry>
        </mxCell>
        <mxCell id="8c2rz28ZeFPdhyrxypDs-27" value="AXI DMA" style="rounded=0;whiteSpace=wrap;html=1;fontStyle=1;fillColor=#dae8fc;strokeColor=#6c8ebf;strokeWidth=2;fontSize=20;" vertex="1" parent="1">
          <mxGeometry x="1240" y="205" width="100" height="50" as="geometry" />
        </mxCell>
        <mxCell id="8c2rz28ZeFPdhyrxypDs-28" value="" style="endArrow=classic;startArrow=classic;html=1;rounded=0;entryX=0.5;entryY=1;entryDx=0;entryDy=0;fontStyle=1;strokeWidth=2;fontSize=20;exitX=0.918;exitY=0.441;exitDx=0;exitDy=0;exitPerimeter=0;" edge="1" parent="1" source="8c2rz28ZeFPdhyrxypDs-38" target="8c2rz28ZeFPdhyrxypDs-27">
          <mxGeometry width="50" height="50" relative="1" as="geometry">
            <mxPoint x="1280.21" y="310.48" as="sourcePoint" />
            <mxPoint x="1279.76" y="280" as="targetPoint" />
          </mxGeometry>
        </mxCell>
        <mxCell id="8c2rz28ZeFPdhyrxypDs-29" value="" style="endArrow=classic;startArrow=classic;html=1;rounded=0;entryX=1;entryY=0.5;entryDx=0;entryDy=0;fontStyle=1;exitX=0;exitY=0.5;exitDx=0;exitDy=0;strokeWidth=2;fontSize=20;" edge="1" parent="1" source="8c2rz28ZeFPdhyrxypDs-27" target="8c2rz28ZeFPdhyrxypDs-19">
          <mxGeometry width="50" height="50" relative="1" as="geometry">
            <mxPoint x="1289.76" y="330" as="sourcePoint" />
            <mxPoint x="1289.76" y="290" as="targetPoint" />
          </mxGeometry>
        </mxCell>
        <mxCell id="8c2rz28ZeFPdhyrxypDs-30" value="MicroBlaze" style="rounded=0;whiteSpace=wrap;html=1;fontStyle=1;strokeWidth=2;fontSize=20;fillColor=#fff2cc;strokeColor=#d6b656;" vertex="1" parent="1">
          <mxGeometry x="480" y="200" width="120" height="260" as="geometry" />
        </mxCell>
        <mxCell id="8c2rz28ZeFPdhyrxypDs-31" value="" style="endArrow=classic;startArrow=classic;html=1;rounded=0;exitX=1;exitY=0.5;exitDx=0;exitDy=0;entryX=0;entryY=0.5;entryDx=0;entryDy=0;fontStyle=1;strokeWidth=2;fontSize=20;" edge="1" parent="1" source="8c2rz28ZeFPdhyrxypDs-30">
          <mxGeometry width="50" height="50" relative="1" as="geometry">
            <mxPoint x="660" y="330" as="sourcePoint" />
            <mxPoint x="640" y="330" as="targetPoint" />
          </mxGeometry>
        </mxCell>
        <mxCell id="8c2rz28ZeFPdhyrxypDs-32" value="Local&lt;div style=&quot;font-size: 20px;&quot;&gt;Memory&lt;/div&gt;" style="rounded=0;whiteSpace=wrap;html=1;fontStyle=1;strokeWidth=2;fontSize=20;fillColor=#fff2cc;strokeColor=#d6b656;" vertex="1" parent="1">
          <mxGeometry x="320" y="270" width="120" height="120" as="geometry" />
        </mxCell>
        <mxCell id="8c2rz28ZeFPdhyrxypDs-33" value="" style="endArrow=classic;startArrow=classic;html=1;rounded=0;exitX=1;exitY=0.5;exitDx=0;exitDy=0;entryX=0;entryY=0.5;entryDx=0;entryDy=0;fontStyle=1;strokeWidth=2;fontSize=20;" edge="1" parent="1" source="8c2rz28ZeFPdhyrxypDs-32" target="8c2rz28ZeFPdhyrxypDs-30">
          <mxGeometry width="50" height="50" relative="1" as="geometry">
            <mxPoint x="520" y="350" as="sourcePoint" />
            <mxPoint x="570" y="300" as="targetPoint" />
          </mxGeometry>
        </mxCell>
        <mxCell id="8c2rz28ZeFPdhyrxypDs-34" value="" style="group" vertex="1" connectable="0" parent="1">
          <mxGeometry x="640" y="200" width="160" height="60" as="geometry" />
        </mxCell>
        <mxCell id="8c2rz28ZeFPdhyrxypDs-2" value="RV32I CORE" style="rounded=0;whiteSpace=wrap;html=1;fontStyle=1;fillColor=#f8cecc;strokeColor=#b85450;strokeWidth=2;fontSize=20;" vertex="1" parent="8c2rz28ZeFPdhyrxypDs-34">
          <mxGeometry width="160" height="60" as="geometry" />
        </mxCell>
        <mxCell id="8c2rz28ZeFPdhyrxypDs-35" value="" style="shape=flexArrow;endArrow=classic;startArrow=classic;html=1;rounded=0;entryX=0.5;entryY=1;entryDx=0;entryDy=0;width=10.857142857142858;endSize=2.9257142857142857;startSize=2.9257142857142857;fillColor=#ffe6cc;strokeColor=#d79b00;" edge="1" parent="1" target="8c2rz28ZeFPdhyrxypDs-4">
          <mxGeometry width="100" height="100" relative="1" as="geometry">
            <mxPoint x="1100" y="540" as="sourcePoint" />
            <mxPoint x="970" y="420" as="targetPoint" />
          </mxGeometry>
        </mxCell>
        <mxCell id="8c2rz28ZeFPdhyrxypDs-36" value="" style="shape=flexArrow;endArrow=classic;startArrow=classic;html=1;rounded=0;entryX=0.5;entryY=1;entryDx=0;entryDy=0;width=10.857142857142858;endSize=2.9257142857142857;startSize=2.9257142857142857;exitX=0.5;exitY=0;exitDx=0;exitDy=0;fillColor=#ffe6cc;strokeColor=#d79b00;" edge="1" parent="1" source="8c2rz28ZeFPdhyrxypDs-5" target="8c2rz28ZeFPdhyrxypDs-12">
          <mxGeometry width="100" height="100" relative="1" as="geometry">
            <mxPoint x="930" y="205" as="sourcePoint" />
            <mxPoint x="930" y="125" as="targetPoint" />
          </mxGeometry>
        </mxCell>
        <mxCell id="8c2rz28ZeFPdhyrxypDs-37" value="" style="shape=flexArrow;endArrow=classic;startArrow=classic;html=1;rounded=0;entryX=0.5;entryY=1;entryDx=0;entryDy=0;width=10.857142857142858;endSize=2.9257142857142857;startSize=2.9257142857142857;exitX=0.5;exitY=0;exitDx=0;exitDy=0;fillColor=#ffe6cc;strokeColor=#d79b00;" edge="1" parent="1">
          <mxGeometry width="100" height="100" relative="1" as="geometry">
            <mxPoint x="1099.76" y="205" as="sourcePoint" />
            <mxPoint x="1099.76" y="120" as="targetPoint" />
          </mxGeometry>
        </mxCell>
        <mxCell id="8c2rz28ZeFPdhyrxypDs-39" value="&lt;span style=&quot;font-weight: normal;&quot;&gt;AXI SmartConnect&lt;/span&gt;" style="rounded=0;whiteSpace=wrap;html=1;fontStyle=1;strokeWidth=2;fontSize=20;fillColor=#f5f5f5;fontColor=#333333;strokeColor=#666666;" vertex="1" parent="1">
          <mxGeometry x="640" y="310" width="700" height="40" as="geometry" />
        </mxCell>
        <mxCell id="8c2rz28ZeFPdhyrxypDs-40" value="AXI GPIO" style="rounded=0;whiteSpace=wrap;html=1;fontStyle=1;fillColor=#b0e3e6;strokeColor=#0e8088;strokeWidth=2;fontSize=20;" vertex="1" parent="1">
          <mxGeometry x="1220" y="400" width="120" height="60" as="geometry" />
        </mxCell>
        <mxCell id="8c2rz28ZeFPdhyrxypDs-41" value="" style="endArrow=classic;startArrow=classic;html=1;rounded=0;exitX=0.5;exitY=0;exitDx=0;exitDy=0;entryX=0.63;entryY=0.965;entryDx=0;entryDy=0;fontStyle=1;entryPerimeter=0;strokeWidth=2;fontSize=20;" edge="1" parent="1">
          <mxGeometry width="50" height="50" relative="1" as="geometry">
            <mxPoint x="1279.88" y="400" as="sourcePoint" />
            <mxPoint x="1279.7799999999997" y="348.6" as="targetPoint" />
          </mxGeometry>
        </mxCell>
        <mxCell id="8c2rz28ZeFPdhyrxypDs-42" value="" style="shape=flexArrow;endArrow=classic;startArrow=classic;html=1;rounded=0;entryX=0.5;entryY=1;entryDx=0;entryDy=0;width=10.857142857142858;endSize=2.9257142857142857;startSize=2.9257142857142857;fillColor=#ffe6cc;strokeColor=#d79b00;" edge="1" parent="1">
          <mxGeometry width="100" height="100" relative="1" as="geometry">
            <mxPoint x="1279.62" y="540" as="sourcePoint" />
            <mxPoint x="1279.62" y="460" as="targetPoint" />
          </mxGeometry>
        </mxCell>
        <mxCell id="8c2rz28ZeFPdhyrxypDs-43" value="&lt;b&gt;&lt;font style=&quot;font-size: 20px;&quot;&gt;FPGA&lt;/font&gt;&lt;/b&gt;" style="text;html=1;align=center;verticalAlign=middle;whiteSpace=wrap;rounded=0;" vertex="1" parent="1">
          <mxGeometry x="280" y="160" width="120" height="50" as="geometry" />
        </mxCell>
      </root>
    </mxGraphModel>
  </diagram>
</mxfile>
